<svg width="130" height="130" viewBox="0 0 130 130" fill="none" xmlns="http://www.w3.org/2000/svg">
<path d="M104.848 25.1519L59.3394 70.6606M25.3778 54.047L103.504 24.4781C103.786 24.3703 104.093 24.3464 104.388 24.4093C104.683 24.4723 104.954 24.6193 105.167 24.8327C105.381 25.046 105.528 25.3166 105.591 25.6117C105.654 25.9069 105.63 26.2139 105.522 26.4957L75.953 104.622C75.8354 104.919 75.6297 105.172 75.3637 105.349C75.0977 105.525 74.7841 105.616 74.465 105.609C74.1459 105.601 73.8367 105.497 73.579 105.308C73.3212 105.12 73.1273 104.857 73.0232 104.556L59.8589 72.1157C59.7055 71.656 59.4472 71.2383 59.1044 70.8956C58.7617 70.5528 58.344 70.2945 57.8843 70.1411L25.4442 56.9885C25.1386 56.8868 24.8719 56.6932 24.6806 56.4341C24.4893 56.175 24.3827 55.8631 24.3754 55.5411C24.3681 55.2191 24.4605 54.9028 24.64 54.6353C24.8194 54.3679 25.0771 54.1624 25.3778 54.047Z" stroke="url(#paint0_linear_135_140)" stroke-width="8.66667" stroke-linecap="round" stroke-linejoin="round"/>
<mask id="path-2-inside-1_135_140" fill="white">
<path d="M113.75 36.562C121.875 55.2495 120.856 73.0508 116.421 84.243C111.986 95.4352 103.965 104.841 93.6148 110.99C83.2642 117.139 71.1674 119.683 59.2171 118.224C47.2667 116.765 36.137 111.386 27.5692 102.929C19.0015 94.4711 13.479 83.4119 11.8659 71.4814C10.2529 59.5509 12.6401 47.4222 18.6543 36.993C24.6684 26.5638 33.9701 18.4224 45.104 13.8426C56.238 9.26288 76.375 8.12464 91 15.4377L80.4375 18.6877C70.1996 15.8847 57.3707 15.7609 47.554 19.7988C37.7373 23.8368 29.5361 31.015 24.2335 40.2103C18.9309 49.4057 16.826 60.0995 18.2483 70.6185C19.6705 81.1375 24.5396 90.8883 32.0937 98.3453C39.6479 105.802 49.4609 110.545 59.9974 111.831C70.5339 113.117 81.1995 110.874 90.3255 105.453C99.4515 100.032 106.523 91.7384 110.434 81.8703C114.344 72.0022 113.369 57.3253 110.434 47.1245L113.75 36.562Z"/>
</mask>
<path d="M113.75 36.562L121.698 33.1063L112.438 11.8086L105.481 33.9658L113.75 36.562ZM91 15.4377L93.5487 23.7211L114.222 17.36L94.8761 7.68608L91 15.4377ZM80.4375 18.6877L78.1489 27.0467L80.5786 27.7119L82.9862 26.9711L80.4375 18.6877ZM110.434 47.1245L102.165 44.5283L101.384 47.0156L102.105 49.521L110.434 47.1245ZM105.802 40.0176C113.053 56.6938 111.91 72.1019 108.364 81.0501L124.478 87.4359C129.803 73.9997 130.697 53.8051 121.698 33.1063L105.802 40.0176ZM108.364 81.0501C104.635 90.4605 97.8912 98.3692 89.1885 103.539L98.041 118.441C110.039 111.314 119.337 100.41 124.478 87.4359L108.364 81.0501ZM89.1885 103.539C80.4858 108.709 70.3149 110.848 60.2671 109.621L58.1671 126.827C72.02 128.518 86.0426 125.569 98.041 118.441L89.1885 103.539ZM60.2671 109.621C50.2193 108.395 40.8615 103.872 33.6577 96.761L21.4807 109.097C31.4125 118.901 44.3142 125.136 58.1671 126.827L60.2671 109.621ZM33.6577 96.761C26.454 89.6498 21.8107 80.3513 20.4545 70.3202L3.27742 72.6426C5.14731 86.4725 11.5489 99.2924 21.4807 109.097L33.6577 96.761ZM20.4545 70.3202C19.0982 60.2891 21.1054 50.0913 26.1621 41.3225L11.1465 32.6636C4.17488 44.7532 1.40753 58.8128 3.27742 72.6426L20.4545 70.3202ZM26.1621 41.3225C31.2187 32.5536 39.0396 25.7084 48.4009 21.8577L41.8072 5.82756C28.9007 11.1364 18.1181 20.574 11.1465 32.6636L26.1621 41.3225ZM48.4009 21.8577C52.6913 20.093 59.326 18.7959 66.6829 18.8468C74.0139 18.8975 81.3105 20.2823 87.1239 23.1893L94.8761 7.68608C86.0645 3.27997 75.9801 1.57738 66.8028 1.5139C57.6514 1.4506 48.6507 3.01256 41.8072 5.82756L48.4009 21.8577ZM88.4513 7.15425L77.8888 10.4042L82.9862 26.9711L93.5487 23.7211L88.4513 7.15425ZM82.7261 10.3286C71.1368 7.15566 56.2705 6.84224 44.2571 11.7837L50.8509 27.8139C58.4709 24.6796 69.2623 24.6137 78.1489 27.0467L82.7261 10.3286ZM44.2571 11.7837C32.6679 16.5508 22.9858 25.0252 16.7257 35.8809L31.7413 44.5398C36.0864 37.0048 42.8068 31.1228 50.8509 27.8139L44.2571 11.7837ZM16.7257 35.8809C10.4656 46.7366 7.98069 59.3613 9.65974 71.7797L26.8368 69.4572C25.6713 60.8376 27.3961 52.0748 31.7413 44.5398L16.7257 35.8809ZM9.65974 71.7797C11.3388 84.1981 17.0871 95.7096 26.0052 104.513L38.1822 92.1776C31.9921 86.067 28.0022 78.0769 26.8368 69.4572L9.65974 71.7797ZM26.0052 104.513C34.9234 113.317 46.5083 118.916 58.9474 120.434L61.0474 103.228C52.4134 102.174 44.3723 98.2881 38.1822 92.1776L26.0052 104.513ZM58.9474 120.434C71.3864 121.952 83.9779 119.304 94.7518 112.904L85.8993 98.0017C78.4212 102.444 69.6814 104.282 61.0474 103.228L58.9474 120.434ZM94.7518 112.904C105.526 106.504 113.874 96.7132 118.491 85.0632L102.377 78.6773C99.1721 86.7636 93.3775 93.5595 85.8993 98.0017L94.7518 112.904ZM118.491 85.0632C121.021 78.6775 121.801 71.2818 121.666 64.4511C121.529 57.5386 120.443 50.5701 118.762 44.7279L102.105 49.521C103.359 53.8796 104.228 59.35 104.336 64.7932C104.445 70.3181 103.757 75.195 102.377 78.6773L118.491 85.0632ZM118.702 49.7206L122.019 39.1581L105.481 33.9658L102.165 44.5283L118.702 49.7206Z" fill="url(#paint1_linear_135_140)" mask="url(#path-2-inside-1_135_140)"/>
<defs>
<linearGradient id="paint0_linear_135_140" x1="11.375" y1="65" x2="118.5" y2="65" gradientUnits="userSpaceOnUse">
<stop stop-color="#9F02B8"/>
<stop offset="1" stop-color="#F8BD00"/>
</linearGradient>
<linearGradient id="paint1_linear_135_140" x1="11" y1="64" x2="353.5" y2="64" gradientUnits="userSpaceOnUse">
<stop stop-color="#9F02B8"/>
<stop offset="1" stop-color="#F8BD00"/>
</linearGradient>
</defs>
</svg>
