<svg width="57" height="56" viewBox="0 0 57 56" fill="none" xmlns="http://www.w3.org/2000/svg">
<rect x="1.18811" y="0.5" width="55" height="55" rx="11.5" stroke="url(#paint0_linear_328_2348)"/>
<path d="M37.1881 12H20.1881C16.046 12 12.6881 15.3579 12.6881 19.5V36.5C12.6881 40.6421 16.046 44 20.1881 44H37.1881C41.3302 44 44.6881 40.6421 44.6881 36.5V19.5C44.6881 15.3579 41.3302 12 37.1881 12Z" fill="url(#paint1_radial_328_2348)"/>
<path d="M37.1881 12H20.1881C16.046 12 12.6881 15.3579 12.6881 19.5V36.5C12.6881 40.6421 16.046 44 20.1881 44H37.1881C41.3302 44 44.6881 40.6421 44.6881 36.5V19.5C44.6881 15.3579 41.3302 12 37.1881 12Z" fill="url(#paint2_radial_328_2348)"/>
<path d="M28.6892 15.5C25.2945 15.5 24.8684 15.5149 23.5351 15.5755C22.2044 15.6365 21.296 15.8471 20.5012 16.1562C19.679 16.4755 18.9816 16.9026 18.2869 17.5976C17.5915 18.2925 17.1644 18.9899 16.8441 19.8117C16.5341 20.6068 16.3232 21.5155 16.2634 22.8456C16.2037 24.179 16.1881 24.6053 16.1881 28.0001C16.1881 31.395 16.2031 31.8197 16.2636 33.153C16.3249 34.4837 16.5355 35.3921 16.8444 36.1869C17.1639 37.0091 17.591 37.7065 18.286 38.4013C18.9806 39.0966 19.678 39.5247 20.4996 39.844C21.295 40.1531 22.2035 40.3637 23.534 40.4247C24.8674 40.4854 25.2931 40.5002 28.6877 40.5002C32.0829 40.5002 32.5076 40.4854 33.8409 40.4247C35.1716 40.3637 36.081 40.1531 36.8764 39.844C37.6982 39.5247 38.3946 39.0966 39.0891 38.4013C39.7845 37.7065 40.2115 37.0091 40.5319 36.1873C40.8391 35.3921 41.0501 34.4835 41.1126 33.1532C41.1725 31.82 41.1881 31.395 41.1881 28.0001C41.1881 24.6053 41.1725 24.1792 41.1126 22.8459C41.0501 21.5151 40.8391 20.6069 40.5319 19.8121C40.2115 18.9899 39.7845 18.2925 39.0891 17.5976C38.3939 16.9024 37.6985 16.4752 36.8756 16.1564C36.0787 15.8471 35.1699 15.6364 33.8391 15.5755C32.5057 15.5149 32.0812 15.5 28.6854 15.5H28.6892ZM27.5679 17.7526C27.9007 17.7521 28.2721 17.7526 28.6892 17.7526C32.0269 17.7526 32.4224 17.7646 33.7404 17.8245C34.9591 17.8802 35.6206 18.0839 36.0612 18.255C36.6446 18.4815 37.0605 18.7524 37.4977 19.19C37.9352 19.6275 38.206 20.0441 38.4331 20.6275C38.6042 21.0675 38.8081 21.729 38.8636 22.9478C38.9235 24.2655 38.9365 24.6612 38.9365 27.9972C38.9365 31.3333 38.9235 31.7291 38.8636 33.0467C38.8079 34.2655 38.6042 34.927 38.4331 35.3671C38.2066 35.9505 37.9352 36.3659 37.4977 36.8031C37.0602 37.2406 36.6449 37.5114 36.0612 37.738C35.6211 37.9099 34.9591 38.113 33.7404 38.1688C32.4226 38.2286 32.0269 38.2416 28.6892 38.2416C25.3515 38.2416 24.9559 38.2286 23.6382 38.1688C22.4195 38.1125 21.758 37.9089 21.317 37.7377C20.7337 37.5111 20.317 37.2404 19.8795 36.8029C19.442 36.3654 19.1712 35.9498 18.9441 35.3661C18.773 34.926 18.5691 34.2645 18.5136 33.0457C18.4537 31.728 18.4417 31.3323 18.4417 27.9941C18.4417 24.6561 18.4537 24.2624 18.5136 22.9446C18.5694 21.7259 18.773 21.0644 18.9441 20.6237C19.1707 20.0404 19.442 19.6238 19.8796 19.1863C20.3171 18.7488 20.7337 18.4779 21.3171 18.2509C21.7577 18.079 22.4195 17.8759 23.6382 17.8199C24.7914 17.7677 25.2382 17.7521 27.5679 17.7495V17.7526ZM35.3617 19.8281C34.5336 19.8281 33.8617 20.4994 33.8617 21.3276C33.8617 22.1558 34.5336 22.8276 35.3617 22.8276C36.1899 22.8276 36.8617 22.1558 36.8617 21.3276C36.8617 20.4995 36.1899 19.8276 35.3617 19.8276V19.8281ZM28.6892 21.5808C25.1442 21.5808 22.27 24.455 22.27 28.0001C22.27 31.5452 25.1442 34.4181 28.6892 34.4181C32.2344 34.4181 35.1076 31.5452 35.1076 28.0001C35.1076 24.4551 32.2341 21.5808 28.689 21.5808H28.6892ZM28.6892 23.8334C30.9904 23.8334 32.856 25.6988 32.856 28.0001C32.856 30.3013 30.9904 32.1669 28.6892 32.1669C26.388 32.1669 24.5226 30.3013 24.5226 28.0001C24.5226 25.6988 26.388 23.8334 28.6892 23.8334Z" fill="white"/>
<defs>
<linearGradient id="paint0_linear_328_2348" x1="1.004" y1="28" x2="56.6881" y2="28" gradientUnits="userSpaceOnUse">
<stop stop-color="#9F02B8"/>
<stop offset="1" stop-color="#F8BD00"/>
</linearGradient>
<radialGradient id="paint1_radial_328_2348" cx="0" cy="0" r="1" gradientUnits="userSpaceOnUse" gradientTransform="translate(21.1881 46.4646) rotate(-90) scale(31.7144 29.4969)">
<stop stop-color="#FFDD55"/>
<stop offset="0.1" stop-color="#FFDD55"/>
<stop offset="0.5" stop-color="#FF543E"/>
<stop offset="1" stop-color="#C837AB"/>
</radialGradient>
<radialGradient id="paint2_radial_328_2348" cx="0" cy="0" r="1" gradientUnits="userSpaceOnUse" gradientTransform="translate(7.32799 14.3051) rotate(78.681) scale(14.1765 58.436)">
<stop stop-color="#3771C8"/>
<stop offset="0.128" stop-color="#3771C8"/>
<stop offset="1" stop-color="#6600FF" stop-opacity="0"/>
</radialGradient>
</defs>
</svg>
