<svg aria-hidden="true" style="position: absolute; width: 0; height: 0; overflow: hidden;" version="1.1" xmlns="http://www.w3.org/2000/svg" xmlns:xlink="http://www.w3.org/1999/xlink">
<defs>
<symbol id="activity" viewBox="0 0 32 32">
<path d="M11.429 30.857c-0.226-0.001-0.446-0.069-0.633-0.195s-0.333-0.305-0.418-0.514l-5.429-13.006h-4.949v-2.286h5.714c0.226 0.001 0.446 0.069 0.633 0.195s0.333 0.305 0.418 0.514l4.663 11.040 9.211-24.72c0.082-0.219 0.228-0.407 0.421-0.54s0.42-0.204 0.654-0.203c0.236 0.004 0.464 0.081 0.655 0.22s0.333 0.334 0.408 0.557l4.331 12.937h4.891v2.286h-5.714c-0.24 0.001-0.473-0.074-0.668-0.213s-0.341-0.337-0.418-0.564l-3.486-10.651-9.211 24.4c-0.082 0.219-0.228 0.407-0.421 0.54s-0.42 0.204-0.654 0.203z"></path>
</symbol>
<symbol id="arrow-down" viewBox="0 0 32 32">
<path d="M17.675 23.898c-0.445 0.444-1.047 0.694-1.676 0.694s-1.231-0.25-1.676-0.694l-13.409-13.409c-0.226-0.219-0.407-0.48-0.531-0.769s-0.19-0.6-0.192-0.915c-0.003-0.315 0.057-0.627 0.176-0.918s0.295-0.556 0.518-0.779c0.223-0.223 0.487-0.399 0.779-0.518s0.603-0.179 0.918-0.176c0.315 0.003 0.626 0.068 0.915 0.192s0.551 0.305 0.769 0.531l11.733 11.733 11.733-11.733c0.447-0.432 1.046-0.671 1.667-0.665s1.216 0.255 1.655 0.694c0.439 0.439 0.689 1.034 0.694 1.655s-0.234 1.22-0.665 1.667l-13.409 13.409z"></path>
</symbol>
<symbol id="chat" viewBox="0 0 32 32">
<path d="M20.444 23.111c0 0.236-0.094 0.462-0.26 0.629s-0.393 0.26-0.629 0.26h-12.444c-0.196 0-0.382 0.178-0.542 0.293l-3.013 2.373v-14.222c0-0.236 0.094-0.462 0.26-0.629s0.393-0.26 0.629-0.26h3.431v-1.778h-3.431c-0.707 0-1.386 0.281-1.886 0.781s-0.781 1.178-0.781 1.886v16c0.001 0.165 0.049 0.327 0.137 0.466s0.213 0.252 0.361 0.325c0.143 0.065 0.3 0.091 0.456 0.075s0.305-0.072 0.432-0.164l4.578-3.369h11.947c0.337 0.010 0.672-0.049 0.985-0.174s0.597-0.313 0.835-0.552c0.238-0.239 0.423-0.525 0.546-0.838s0.18-0.65 0.167-0.986v-1.004h-1.778v0.889z"></path>
<path d="M28.444 11.751v8.64l-3.111-2.427c-0.155-0.12-0.346-0.186-0.542-0.187h-12.347c-0.236 0-0.462-0.094-0.629-0.26s-0.26-0.393-0.26-0.629v-10.667c0-0.236 0.094-0.462 0.26-0.629s0.393-0.26 0.629-0.26h7.556c0.002-0.601 0.086-1.199 0.249-1.778h-7.804c-0.707 0-1.386 0.281-1.886 0.781s-0.781 1.178-0.781 1.886v10.667c0 0.707 0.281 1.386 0.781 1.886s1.178 0.781 1.886 0.781h12.044l4.249 3.298c0.126 0.093 0.275 0.152 0.431 0.169s0.314-0.007 0.458-0.071c0.151-0.072 0.279-0.185 0.369-0.327s0.137-0.305 0.138-0.473v-11.156c-0.525 0.33-1.093 0.584-1.689 0.756z"></path>
<path d="M26.667 9.778c2.455 0 4.444-1.99 4.444-4.444s-1.99-4.444-4.444-4.444c-2.455 0-4.444 1.99-4.444 4.444s1.99 4.444 4.444 4.444z"></path>
</symbol>
<symbol id="checkbox" viewBox="0 0 32 32">
<path d="M26 4h-20c-0.53 0-1.039 0.211-1.414 0.586s-0.586 0.884-0.586 1.414v20c0 0.53 0.211 1.039 0.586 1.414s0.884 0.586 1.414 0.586h20c0.53 0 1.039-0.211 1.414-0.586s0.586-0.884 0.586-1.414v-20c0-0.53-0.211-1.039-0.586-1.414s-0.884-0.586-1.414-0.586zM6 26v-20h20v20h-20z"></path>
</symbol>
<symbol id="eye" viewBox="0 0 32 32">
<path fill="#606060" style="fill: var(--color3, #606060)" d="M31.908 15.568c-0.047-0.105-1.176-2.611-3.687-5.121-3.345-3.345-7.571-5.113-12.221-5.113s-8.876 1.768-12.221 5.113c-2.511 2.511-3.645 5.020-3.687 5.121-0.061 0.136-0.092 0.284-0.092 0.433s0.031 0.297 0.092 0.433c0.047 0.105 1.176 2.609 3.687 5.12 3.345 3.344 7.571 5.112 12.221 5.112s8.876-1.768 12.221-5.112c2.511-2.511 3.64-5.015 3.687-5.12 0.061-0.136 0.092-0.284 0.092-0.433s-0.031-0.297-0.092-0.433zM16 24.533c-4.104 0-7.689-1.492-10.657-4.433-1.218-1.211-2.254-2.592-3.076-4.1 0.822-1.508 1.858-2.889 3.076-4.1 2.968-2.941 6.553-4.433 10.657-4.433s7.689 1.492 10.657 4.433c1.22 1.211 2.259 2.592 3.083 4.1-0.961 1.795-5.149 8.533-13.74 8.533zM16 9.6c-1.266 0-2.503 0.375-3.556 1.079s-1.873 1.703-2.357 2.872c-0.484 1.169-0.611 2.456-0.364 3.698s0.856 2.382 1.752 3.277c0.895 0.895 2.036 1.505 3.277 1.752s2.528 0.12 3.698-0.364c1.169-0.484 2.169-1.305 2.872-2.357s1.079-2.29 1.079-3.556c-0.002-1.697-0.677-3.324-1.876-4.524s-2.827-1.875-4.524-1.876zM16 20.267c-0.844 0-1.669-0.25-2.37-0.719s-1.249-1.135-1.571-1.915c-0.323-0.78-0.407-1.637-0.243-2.465s0.571-1.588 1.168-2.185c0.597-0.597 1.357-1.003 2.185-1.168s1.686-0.080 2.465 0.243 1.446 0.87 1.915 1.571c0.469 0.702 0.719 1.527 0.719 2.37 0 1.132-0.45 2.217-1.25 3.017s-1.885 1.25-3.017 1.25z"></path>
</symbol>
<symbol id="eye-closed" viewBox="0 0 32 32">
<path d="M30.914 15.595c-0.044-0.099-1.102-2.447-3.456-4.801-3.136-3.136-7.098-4.794-11.457-4.794s-8.321 1.657-11.457 4.794c-2.354 2.354-3.417 4.706-3.456 4.801-0.057 0.128-0.086 0.266-0.086 0.406s0.029 0.278 0.086 0.406c0.044 0.099 1.103 2.446 3.456 4.8 3.136 3.135 7.098 4.793 11.457 4.793s8.321-1.657 11.457-4.793c2.354-2.354 3.413-4.701 3.456-4.8 0.057-0.128 0.086-0.266 0.086-0.406s-0.029-0.278-0.086-0.406zM16 24c-3.848 0-7.209-1.399-9.991-4.156-1.142-1.135-2.113-2.43-2.884-3.844 0.771-1.414 1.742-2.708 2.884-3.844 2.783-2.757 6.144-4.156 9.991-4.156s7.209 1.399 9.991 4.156c1.144 1.135 2.117 2.43 2.89 3.844-0.901 1.682-4.828 8-12.881 8zM16 10c-1.187 0-2.347 0.352-3.333 1.011s-1.756 1.596-2.21 2.693c-0.454 1.096-0.573 2.303-0.341 3.467s0.803 2.233 1.642 3.072c0.839 0.839 1.908 1.411 3.072 1.642s2.37 0.113 3.467-0.341c1.096-0.454 2.033-1.223 2.693-2.21s1.011-2.147 1.011-3.333c-0.002-1.591-0.634-3.116-1.759-4.241s-2.65-1.758-4.241-1.759zM16 20c-0.791 0-1.565-0.235-2.222-0.674s-1.171-1.064-1.473-1.795c-0.303-0.731-0.382-1.535-0.228-2.311s0.535-1.489 1.095-2.048c0.559-0.559 1.272-0.94 2.048-1.095s1.58-0.075 2.311 0.228c0.731 0.303 1.356 0.815 1.795 1.473s0.674 1.431 0.674 2.222c0 1.061-0.421 2.078-1.172 2.828s-1.767 1.172-2.828 1.172z"></path>
<path fill="none" stroke="#2a2a2a" style="stroke: var(--color1, #2a2a2a)" stroke-linejoin="miter" stroke-linecap="round" stroke-miterlimit="4" stroke-width="2" d="M4.746 4.249l22.627 22.627"></path>
</symbol>
<symbol id="google" viewBox="0 0 32 32">
<path fill="#ffc107" style="fill: var(--color6, #ffc107)" d="M29.074 13.389h-1.074v-0.055h-12v5.333h7.535c-1.099 3.105-4.053 5.333-7.535 5.333-4.418 0-8-3.582-8-8s3.582-8 8-8c2.039 0 3.895 0.769 5.307 2.026l3.771-3.771c-2.381-2.219-5.567-3.588-9.079-3.588-7.363 0-13.333 5.97-13.333 13.333s5.97 13.333 13.333 13.333c7.363 0 13.333-5.97 13.333-13.333 0-0.894-0.092-1.767-0.259-2.611z"></path>
<path fill="#ff3d00" style="fill: var(--color7, #ff3d00)" d="M4.204 9.794l4.381 3.213c1.185-2.935 4.056-5.007 7.415-5.007 2.039 0 3.895 0.769 5.307 2.026l3.771-3.771c-2.381-2.219-5.567-3.588-9.079-3.588-5.121 0-9.563 2.891-11.796 7.127z"></path>
<path fill="#4caf50" style="fill: var(--color8, #4caf50)" d="M16 29.333c3.444 0 6.573-1.318 8.939-3.461l-4.127-3.492c-1.384 1.052-3.074 1.621-4.813 1.62-3.468 0-6.413-2.211-7.522-5.297l-4.348 3.35c2.207 4.318 6.688 7.281 11.87 7.281z"></path>
<path fill="#1976d2" style="fill: var(--color9, #1976d2)" d="M29.074 13.389h-1.074v-0.055h-12v5.333h7.535c-0.526 1.478-1.473 2.769-2.725 3.714l0.002-0.001 4.127 3.492c-0.292 0.265 4.394-3.205 4.394-9.871 0-0.894-0.092-1.767-0.259-2.611z"></path>
</symbol>
<symbol id="left-switch" viewBox="0 0 32 32">
<path d="M16 24l1.43-1.393-5.58-5.607h12.15v-2h-12.15l5.58-5.573-1.43-1.427-8 8 8 8z"></path>
<path d="M16 30c-2.769 0-5.476-0.821-7.778-2.359s-4.097-3.725-5.156-6.283c-1.060-2.558-1.337-5.373-0.797-8.089s1.874-5.21 3.832-7.168 4.452-3.291 7.168-3.832c2.716-0.54 5.531-0.263 8.089 0.797s4.745 2.854 6.283 5.156c1.538 2.302 2.359 5.009 2.359 7.778-0.004 3.712-1.481 7.27-4.105 9.895s-6.183 4.101-9.895 4.105zM16 4c-2.373 0-4.693 0.704-6.667 2.022s-3.511 3.193-4.42 5.385-1.146 4.606-0.683 6.933c0.463 2.328 1.606 4.466 3.284 6.144s3.816 2.821 6.144 3.284c2.328 0.463 4.741 0.225 6.933-0.683s4.067-2.446 5.385-4.42c1.319-1.973 2.022-4.293 2.022-6.667-0.004-3.181-1.269-6.232-3.519-8.481s-5.3-3.515-8.481-3.519z"></path>
</symbol>
<symbol id="linkedin" viewBox="0 0 32 32">
<path fill="#fff" style="fill: var(--color5, #fff)" d="M9.617 8.31c-0 0.612-0.244 1.199-0.677 1.632s-1.020 0.676-1.633 0.675c-0.612-0-1.199-0.244-1.632-0.677s-0.676-1.020-0.675-1.633c0-0.612 0.244-1.199 0.677-1.632s1.020-0.676 1.633-0.675c0.612 0 1.199 0.244 1.632 0.677s0.676 1.020 0.675 1.633zM9.686 12.326h-4.617v14.451h4.617v-14.451zM16.981 12.326h-4.594v14.451h4.548v-7.583c0-4.224 5.506-4.617 5.506 0v7.583h4.559v-9.153c0-7.122-8.149-6.856-10.065-3.359l0.046-1.939z"></path>
</symbol>
<symbol id="location-bw" viewBox="0 0 32 32">
<path fill="none" stroke="#2a2a2a" stroke-linejoin="round" stroke-linecap="round" stroke-miterlimit="4" stroke-width="2" d="M16 28.252l0.962-1.084c1.091-1.25 2.072-2.435 2.946-3.563l0.721-0.951c3.009-4.055 4.515-7.273 4.515-9.652 0-5.077-4.093-9.193-9.143-9.193s-9.143 4.116-9.143 9.193c0 2.379 1.506 5.597 4.515 9.652l0.721 0.951c1.246 1.596 2.549 3.145 3.907 4.646z"></path>
<path fill="none" stroke="#2a2a2a" stroke-linejoin="round" stroke-linecap="round" stroke-miterlimit="4" stroke-width="2" d="M16 16.762c2.104 0 3.809-1.706 3.809-3.809s-1.706-3.81-3.809-3.81c-2.104 0-3.809 1.706-3.809 3.81s1.706 3.809 3.809 3.809z"></path>
</symbol>
<symbol id="lock" viewBox="0 0 32 32">
<path fill="none" stroke="#f8a400" style="stroke: var(--color2, #f8a400)" stroke-linejoin="miter" stroke-linecap="butt" stroke-miterlimit="4" stroke-width="2.4615" d="M26.549 18.11v-2.11c0-0.56-0.222-1.096-0.618-1.492s-0.932-0.618-1.492-0.618h-21.099c-0.56 0-1.096 0.222-1.492 0.618s-0.618 0.932-0.618 1.492v12.659c0 0.56 0.222 1.096 0.618 1.492s0.932 0.618 1.492 0.618h21.099c0.56 0 1.096-0.222 1.492-0.618s0.618-0.932 0.618-1.492v-2.11M26.549 18.11h-8.439c-1.119 0-2.192 0.445-2.984 1.236s-1.236 1.865-1.236 2.984c0 1.119 0.445 2.192 1.236 2.984s1.865 1.236 2.984 1.236h8.44M26.549 18.11c1.119 0 2.192 0.445 2.984 1.236s1.236 1.865 1.236 2.984c0 1.119-0.445 2.192-1.236 2.984s-1.865 1.236-2.984 1.236M7.56 13.89v-6.33c0-1.679 0.667-3.289 1.854-4.476s2.797-1.854 4.476-1.854c1.679 0 3.289 0.667 4.476 1.854s1.854 2.797 1.854 4.476v6.33M25.495 22.33h2.11M21.275 22.33h2.11M17.055 22.33h2.11"></path>
</symbol>
<symbol id="mail" viewBox="0 0 32 32">
<path d="M4.042 6h23.917c1.127 0 2.042 0.915 2.042 2.042v16.333c0 0.541-0.215 1.061-0.598 1.444s-0.902 0.598-1.444 0.598h-23.917c-0.542 0-1.061-0.215-1.444-0.598s-0.598-0.902-0.598-1.444v-16.333c0-1.127 0.915-2.042 2.042-2.042zM3.75 11.147v13.228c0 0.161 0.131 0.292 0.292 0.292h23.917c0.077 0 0.152-0.031 0.206-0.085s0.085-0.129 0.085-0.206v-13.228l-11.107 7.505c-0.691 0.467-1.596 0.467-2.287 0l-11.107-7.505zM3.75 8.042v0.994l12.087 8.167c0.048 0.033 0.105 0.050 0.163 0.050s0.115-0.017 0.163-0.050l12.087-8.167v-0.994c0-0.077-0.031-0.152-0.085-0.206s-0.129-0.085-0.206-0.085h-23.917c-0.077 0-0.152 0.031-0.206 0.085s-0.085 0.129-0.085 0.206z"></path>
</symbol>
<symbol id="map" viewBox="0 0 32 32">
<path d="M21.818 31.365l-11.636-4.073-7.676 2.967c-0.497 0.185-0.957 0.131-1.383-0.161s-0.638-0.703-0.638-1.232v-23.721c0-0.345 0.084-0.661 0.252-0.948 0.168-0.284 0.412-0.483 0.733-0.595l8.712-2.969 11.636 4.073 7.676-2.967c0.496-0.185 0.957-0.15 1.383 0.105s0.638 0.634 0.638 1.138v24.019c0 0.371-0.103 0.693-0.308 0.966-0.204 0.274-0.48 0.467-0.826 0.578l-8.562 2.82zM20.848 28.999v-22.691l-9.697-3.384v22.691l9.697 3.384zM22.788 28.999l6.788-2.236v-22.982l-6.788 2.529v22.689zM2.424 28.217l6.788-2.603v-22.691l-6.788 2.312v22.982z"></path>
</symbol>
<symbol id="open" viewBox="0 0 32 32">
<path stroke-linejoin="round" stroke-linecap="round" stroke-miterlimit="4" stroke-width="2" d="M14.125 6h-4.75c-0.63 0-1.234 0.25-1.679 0.696s-0.696 1.050-0.696 1.679v14.25c0 0.63 0.25 1.234 0.696 1.679s1.050 0.696 1.679 0.696h14.25c0.63 0 1.234-0.25 1.679-0.696s0.696-1.050 0.696-1.679v-4.75M16.5 15.5l9.5-9.5M26 6v5.938M26 6h-5.938"></path>
</symbol>
<symbol id="phone" viewBox="0 0 32 32">
<path d="M27.699 20.038l-5.905-2.646c-0.268-0.115-0.559-0.161-0.849-0.134s-0.569 0.125-0.811 0.287c-0.025 0.016-0.048 0.033-0.070 0.052l-3.086 2.625c-0.032 0.017-0.068 0.027-0.104 0.029s-0.073-0.006-0.106-0.021c-1.984-0.957-4.039-3-5-4.956-0.016-0.033-0.024-0.069-0.024-0.105s0.008-0.072 0.024-0.105l2.634-3.125c0.019-0.023 0.036-0.047 0.053-0.072 0.159-0.243 0.255-0.522 0.28-0.812s-0.024-0.581-0.14-0.847l-2.627-5.895c-0.149-0.348-0.407-0.638-0.736-0.827s-0.709-0.266-1.085-0.22c-1.633 0.215-3.133 1.017-4.218 2.257s-1.682 2.832-1.678 4.48c0 9.787 7.963 17.75 17.75 17.75 1.648 0.003 3.24-0.594 4.479-1.679s2.042-2.584 2.257-4.218c0.046-0.374-0.031-0.753-0.218-1.080s-0.474-0.585-0.82-0.736zM22 26.25c-8.96 0-16.25-7.29-16.25-16.25-0.004-1.283 0.459-2.523 1.302-3.489s2.010-1.592 3.281-1.761h0.029c0.050 0.001 0.099 0.017 0.14 0.046s0.072 0.070 0.090 0.117l2.637 5.889c0.015 0.033 0.023 0.068 0.023 0.104s-0.008 0.072-0.023 0.104l-2.639 3.133c-0.020 0.022-0.038 0.046-0.054 0.071-0.165 0.252-0.262 0.543-0.282 0.843s0.038 0.601 0.169 0.873c1.109 2.27 3.396 4.54 5.691 5.649 0.273 0.13 0.576 0.186 0.877 0.164s0.593-0.122 0.844-0.289c0.024-0.016 0.047-0.034 0.070-0.052l3.085-2.625c0.030-0.016 0.064-0.026 0.099-0.028s0.069 0.003 0.101 0.016l5.906 2.646c0.048 0.021 0.089 0.056 0.116 0.101s0.040 0.097 0.035 0.149c-0.168 1.272-0.793 2.439-1.759 3.284s-2.206 1.308-3.489 1.305z"></path>
</symbol>
<symbol id="profile" viewBox="0 0 32 32">
<path d="M8.116 8.348c0-1.035 0.204-2.061 0.6-3.017s0.977-1.826 1.709-2.558c0.732-0.732 1.601-1.313 2.558-1.709s1.982-0.6 3.017-0.6c1.035 0 2.061 0.204 3.017 0.6s1.826 0.977 2.558 1.709c0.732 0.732 1.313 1.601 1.709 2.558s0.6 1.982 0.6 3.017c0 2.091-0.831 4.096-2.309 5.575s-3.484 2.309-5.575 2.309c-2.091 0-4.096-0.831-5.575-2.309s-2.309-3.484-2.309-5.575zM16 3.247c-1.353 0-2.651 0.537-3.607 1.494s-1.494 2.254-1.494 3.607c0 1.353 0.537 2.651 1.494 3.607s2.254 1.494 3.607 1.494c1.353 0 2.651-0.537 3.607-1.494s1.494-2.254 1.494-3.607c0-1.353-0.537-2.651-1.494-3.607s-2.254-1.494-3.607-1.494zM8.58 21.797c-1.107 0-2.169 0.44-2.951 1.223s-1.223 1.844-1.223 2.951v2.204c0 0.033 0.024 0.063 0.058 0.069 7.641 1.247 15.434 1.247 23.073 0 0.016-0.003 0.031-0.011 0.041-0.024s0.016-0.029 0.016-0.045v-2.204c0-1.107-0.44-2.169-1.223-2.951s-1.844-1.223-2.951-1.223h-0.631c-0.050-0-0.099 0.007-0.147 0.022l-1.605 0.525c-3.274 1.069-6.803 1.069-10.077 0l-1.607-0.525c-0.046-0.015-0.094-0.022-0.143-0.022h-0.633zM1.623 25.971c0-1.845 0.733-3.614 2.038-4.919s3.074-2.038 4.919-2.038h0.631c0.343 0 0.685 0.056 1.009 0.16l1.607 0.525c2.712 0.885 5.636 0.885 8.348 0l1.606-0.525c0.325-0.106 0.666-0.16 1.007-0.16h0.633c1.845 0 3.614 0.733 4.919 2.038s2.038 3.074 2.038 4.919v2.204c0 1.399-1.013 2.59-2.393 2.814-7.937 1.296-16.031 1.296-23.968 0-0.668-0.109-1.275-0.452-1.714-0.967s-0.679-1.17-0.679-1.847v-2.204z"></path>
</symbol>
<symbol id="right-switch" viewBox="0 0 32 32">
<path d="M16 8l-1.43 1.393 5.58 5.607h-12.15v2h12.15l-5.58 5.573 1.43 1.427 8-8-8-8z"></path>
<path d="M16 30c-2.769 0-5.476-0.821-7.778-2.359s-4.097-3.725-5.156-6.283c-1.060-2.558-1.337-5.373-0.797-8.089s1.874-5.21 3.832-7.168 4.452-3.291 7.168-3.832c2.716-0.54 5.531-0.263 8.089 0.797s4.745 2.854 6.283 5.156c1.538 2.302 2.359 5.009 2.359 7.778-0.004 3.712-1.481 7.27-4.105 9.895s-6.183 4.101-9.895 4.105zM16 4c-2.373 0-4.693 0.704-6.667 2.022s-3.511 3.193-4.42 5.385-1.146 4.606-0.683 6.933c0.463 2.328 1.606 4.466 3.284 6.144s3.816 2.821 6.144 3.284c2.328 0.463 4.741 0.225 6.933-0.683s4.067-2.446 5.385-4.42c1.319-1.973 2.022-4.293 2.022-6.667-0.004-3.181-1.269-6.232-3.519-8.481s-5.3-3.515-8.481-3.519z"></path>
</symbol>
<symbol id="road-pointer" viewBox="0 0 32 32">
<path fill="#9f02b8" style="fill: var(--color4, #9f02b8)" d="M22.603 9.143c0 4.488-4.064 9.143-8.127 13.714-3.725-4.233-8.127-9.226-8.127-13.714s3.639-8.127 8.127-8.127c4.488 0 8.127 3.639 8.127 8.127z"></path>
<path fill="#fff" style="fill: var(--color5, #fff)" d="M18.54 9.143c0 2.244-1.819 4.064-4.064 4.064s-4.064-1.819-4.064-4.064c0-2.244 1.819-4.064 4.064-4.064s4.064 1.819 4.064 4.064z"></path>
</symbol>
<symbol id="search" viewBox="0 0 32 32">
<path stroke-linejoin="round" stroke-linecap="round" stroke-miterlimit="4" stroke-width="2.9091" d="M11.676 21.897c5.645 0 10.221-4.576 10.221-10.221s-4.576-10.221-10.221-10.221c-5.645 0-10.221 4.576-10.221 10.221s4.576 10.221 10.221 10.221z"></path>
<path stroke-linejoin="round" stroke-linecap="round" stroke-miterlimit="4" stroke-width="2.9091" d="M21.534 18.92l-2.525 2.526M20.372 22.81l2.528-2.528 7.646 7.646-2.529 2.528-7.645-7.645z"></path>
</symbol>
<symbol id="trash" viewBox="0 0 32 32">
<path fill="#e33629" style="fill: var(--color1, #e33629)" d="M13.273 7.364h5.455c0-0.723-0.287-1.417-0.799-1.928s-1.205-0.799-1.928-0.799-1.417 0.287-1.928 0.799c-0.511 0.511-0.799 1.205-0.799 1.928zM11.636 7.364c0-1.157 0.46-2.267 1.278-3.086s1.928-1.278 3.086-1.278 2.267 0.46 3.086 1.278c0.818 0.818 1.278 1.928 1.278 3.086h6.818c0.217 0 0.425 0.086 0.579 0.24s0.24 0.362 0.24 0.579-0.086 0.425-0.24 0.579c-0.154 0.153-0.362 0.24-0.579 0.24h-1.429l-1.328 15.931c-0.097 1.159-0.625 2.239-1.481 3.027s-1.976 1.224-3.139 1.225h-7.61c-1.163-0-2.283-0.437-3.139-1.225s-1.384-1.868-1.481-3.027l-1.328-15.931h-1.429c-0.217 0-0.425-0.086-0.579-0.24s-0.24-0.362-0.24-0.579c0-0.217 0.086-0.425 0.24-0.579s0.362-0.24 0.579-0.24h6.818zM9.206 24.794c0.062 0.75 0.404 1.449 0.958 1.959s1.279 0.793 2.031 0.793h7.61c0.753-0 1.477-0.283 2.031-0.793s0.896-1.209 0.958-1.959l1.318-15.794h-16.223l1.317 15.794zM13.546 12.818c0.217 0 0.425 0.086 0.579 0.24s0.24 0.362 0.24 0.579v9.273c0 0.217-0.086 0.425-0.24 0.578s-0.361 0.24-0.579 0.24-0.425-0.086-0.579-0.24c-0.153-0.153-0.24-0.361-0.24-0.578v-9.273c0-0.217 0.086-0.425 0.24-0.579s0.362-0.24 0.579-0.24zM19.273 13.636c0-0.217-0.086-0.425-0.24-0.579s-0.362-0.24-0.579-0.24c-0.217 0-0.425 0.086-0.579 0.24s-0.24 0.362-0.24 0.579v9.273c0 0.217 0.086 0.425 0.24 0.579s0.362 0.24 0.578 0.24c0.217 0 0.425-0.086 0.579-0.24s0.24-0.361 0.24-0.578v-9.273z"></path>
</symbol>
<symbol id="upload" viewBox="0 0 32 32">
<path d="M4.781 18.908c0.207 0 0.406 0.082 0.552 0.229s0.229 0.345 0.229 0.552v3.906c0 0.414 0.165 0.812 0.458 1.105s0.69 0.458 1.105 0.458h18.75c0.414 0 0.812-0.165 1.105-0.458s0.458-0.691 0.458-1.105v-3.906c0-0.207 0.082-0.406 0.229-0.552s0.345-0.229 0.552-0.229c0.207 0 0.406 0.082 0.552 0.229s0.229 0.345 0.229 0.552v3.906c0 0.829-0.329 1.624-0.915 2.21s-1.381 0.915-2.21 0.915h-18.75c-0.829 0-1.624-0.329-2.21-0.915s-0.915-1.381-0.915-2.21v-3.906c0-0.207 0.082-0.406 0.229-0.552s0.345-0.229 0.552-0.229z"></path>
<path d="M15.947 5.23c0.073-0.073 0.159-0.13 0.254-0.17s0.197-0.060 0.299-0.060c0.103 0 0.204 0.020 0.299 0.060s0.181 0.097 0.254 0.17l4.688 4.688c0.147 0.147 0.229 0.346 0.229 0.553s-0.082 0.406-0.229 0.553-0.346 0.229-0.553 0.229c-0.207 0-0.406-0.082-0.553-0.229l-3.353-3.355v13.739c0 0.207-0.082 0.406-0.229 0.552s-0.345 0.229-0.552 0.229-0.406-0.082-0.552-0.229c-0.146-0.146-0.229-0.345-0.229-0.552v-13.739l-3.353 3.355c-0.073 0.073-0.159 0.13-0.254 0.169s-0.197 0.060-0.299 0.060-0.204-0.020-0.299-0.060c-0.095-0.039-0.181-0.097-0.254-0.169s-0.13-0.159-0.17-0.254-0.059-0.197-0.059-0.299c0-0.103 0.020-0.204 0.059-0.299s0.097-0.181 0.17-0.254l4.688-4.688z"></path>
</symbol>
<symbol id="user" viewBox="0 0 32 32">
<path fill="#a9a9a9" style="fill: var(--color10, #a9a9a9)" d="M22.4 12.8c0 1.697-0.674 3.325-1.875 4.525s-2.828 1.875-4.525 1.875-3.325-0.674-4.525-1.875c-1.2-1.2-1.875-2.828-1.875-4.525s0.674-3.325 1.875-4.525c1.2-1.2 2.828-1.875 4.525-1.875s3.325 0.674 4.525 1.875c1.2 1.2 1.875 2.828 1.875 4.525z"></path>
<path fill="#a9a9a9" style="fill: var(--color10, #a9a9a9)" d="M15.347 31.987c-8.534-0.342-15.347-7.37-15.347-15.987 0-8.837 7.163-16 16-16s16 7.163 16 16c0 8.837-7.163 16-16 16-0.073 0-0.146 0-0.219 0-0.145 0-0.29-0.005-0.434-0.013zM5.733 26.096c-0.12-0.344-0.16-0.71-0.119-1.071s0.163-0.709 0.357-1.017c0.194-0.308 0.455-0.568 0.763-0.761s0.656-0.315 1.018-0.355c6.237-0.69 10.299-0.628 16.506 0.014 0.362 0.038 0.711 0.157 1.019 0.35s0.569 0.453 0.762 0.762c0.193 0.309 0.312 0.657 0.35 1.019s-0.008 0.728-0.133 1.070c2.66-2.691 4.15-6.324 4.145-10.108 0-7.953-6.447-14.4-14.4-14.4s-14.4 6.447-14.4 14.4c0 3.933 1.577 7.498 4.133 10.096z"></path>
</symbol>

<symbol id="logo1" viewBox="0 0 130 130">
<path d="M104.848 25.1519L59.3394 70.6606M25.3778 54.047L103.504 24.4781C103.786 24.3703 104.093 24.3464 104.388 24.4093C104.683 24.4723 104.954 24.6193 105.167 24.8327C105.381 25.046 105.528 25.3166 105.591 25.6117C105.654 25.9069 105.63 26.2139 105.522 26.4957L75.953 104.622C75.8354 104.919 75.6297 105.172 75.3637 105.349C75.0977 105.525 74.7841 105.616 74.465 105.609C74.1459 105.601 73.8367 105.497 73.579 105.308C73.3212 105.12 73.1273 104.857 73.0232 104.556L59.8589 72.1157C59.7055 71.656 59.4472 71.2383 59.1044 70.8956C58.7617 70.5528 58.344 70.2945 57.8843 70.1411L25.4442 56.9885C25.1386 56.8868 24.8719 56.6932 24.6806 56.4341C24.4893 56.175 24.3827 55.8631 24.3754 55.5411C24.3681 55.2191 24.4605 54.9028 24.64 54.6353C24.8194 54.3679 25.0771 54.1624 25.3778 54.047Z" stroke="url(#paint0_linear_135_145)" stroke-width="8.66667" stroke-linecap="round" stroke-linejoin="round"/>
<mask id="mask0_135_145" style="mask-type:luminance" maskUnits="userSpaceOnUse" x="11" y="10" width="109" height="109">
<path d="M113.75 36.562C121.875 55.2495 120.856 73.0508 116.421 84.243C111.986 95.4352 103.965 104.841 93.6148 110.99C83.2642 117.139 71.1674 119.683 59.2171 118.224C47.2667 116.765 36.137 111.386 27.5692 102.929C19.0015 94.4711 13.479 83.4119 11.8659 71.4814C10.2529 59.5509 12.6401 47.4222 18.6543 36.993C24.6684 26.5638 33.9701 18.4224 45.104 13.8426C56.238 9.26288 76.375 8.12464 91 15.4377L80.4375 18.6877C70.1996 15.8847 57.3707 15.7609 47.554 19.7988C37.7373 23.8368 29.5361 31.015 24.2335 40.2103C18.9309 49.4057 16.826 60.0995 18.2483 70.6185C19.6705 81.1375 24.5396 90.8883 32.0937 98.3453C39.6479 105.802 49.4609 110.545 59.9974 111.831C70.5339 113.117 81.1995 110.874 90.3255 105.453C99.4515 100.032 106.523 91.7384 110.434 81.8703C114.344 72.0022 113.369 57.3253 110.434 47.1245L113.75 36.562Z" fill="white"/>
</mask>
<g mask="url(#mask0_135_145)">
<path d="M113.75 36.5622L121.698 33.1065L112.438 11.8088L105.481 33.966L113.75 36.5622ZM90.9999 15.4379L93.5486 23.7213L114.222 17.3602L94.876 7.68624L90.9999 15.4379ZM80.4374 18.6879L78.1488 27.0469L80.5785 27.7121L82.9861 26.9713L80.4374 18.6879ZM110.434 47.1247L102.165 44.5285L101.384 47.0158L102.105 49.5212L110.434 47.1247ZM105.802 40.0178C113.053 56.694 111.91 72.1021 108.364 81.0503L124.478 87.4361C129.803 73.9999 130.697 53.8053 121.698 33.1065L105.802 40.0178ZM108.364 81.0503C104.635 90.4607 97.8911 98.3694 89.1884 103.539L98.0409 118.441C110.039 111.314 119.337 100.41 124.478 87.4361L108.364 81.0503ZM89.1884 103.539C80.4857 108.709 70.3148 110.848 60.267 109.621L58.167 126.827C72.0199 128.518 86.0425 125.569 98.0409 118.441L89.1884 103.539ZM60.267 109.621C50.2192 108.395 40.8614 103.872 33.6576 96.7612L21.4806 109.097C31.4124 118.901 44.3141 125.136 58.167 126.827L60.267 109.621ZM33.6576 96.7612C26.4539 89.65 21.8106 80.3515 20.4544 70.3204L3.27735 72.6428C5.14724 86.4727 11.5488 99.2926 21.4806 109.097L33.6576 96.7612ZM20.4544 70.3204C19.0981 60.2893 21.1053 50.0915 26.162 41.3227L11.1464 32.6638C4.17481 44.7534 1.40746 58.813 3.27735 72.6428L20.4544 70.3204ZM26.162 41.3227C31.2186 32.5538 39.0395 25.7086 48.4008 21.8579L41.8071 5.82772C28.9006 11.1366 18.118 20.5742 11.1464 32.6638L26.162 41.3227ZM48.4008 21.8579C52.6912 20.0932 59.3259 18.7961 66.6828 18.847C74.0138 18.8977 81.3104 20.2825 87.1238 23.1895L94.876 7.68624C86.0644 3.28013 75.98 1.57754 66.8027 1.51406C57.6513 1.45076 48.6506 3.01272 41.8071 5.82772L48.4008 21.8579ZM88.4512 7.15441L77.8887 10.4044L82.9861 26.9713L93.5486 23.7213L88.4512 7.15441ZM82.726 10.3288C71.1367 7.15582 56.2704 6.8424 44.257 11.7839L50.8508 27.8141C58.4708 24.6798 69.2622 24.6139 78.1488 27.0469L82.726 10.3288ZM44.257 11.7839C32.6678 16.551 22.9857 25.0254 16.7256 35.8811L31.7412 44.54C36.0863 37.005 42.8067 31.123 50.8508 27.8141L44.257 11.7839ZM16.7256 35.8811C10.4655 46.7368 7.98062 59.3615 9.65967 71.7799L26.8367 69.4574C25.6712 60.8378 27.396 52.075 31.7412 44.54L16.7256 35.8811ZM9.65967 71.7799C11.3387 84.1983 17.087 95.7098 26.0051 104.513L38.1821 92.1778C31.992 86.0672 28.0021 78.0771 26.8367 69.4574L9.65967 71.7799ZM26.0051 104.513C34.9233 113.317 46.5082 118.916 58.9473 120.434L61.0473 103.228C52.4133 102.174 44.3722 98.2883 38.1821 92.1778L26.0051 104.513ZM58.9473 120.434C71.3863 121.952 83.9778 119.304 94.7517 112.904L85.8992 98.0019C78.4211 102.444 69.6813 104.282 61.0473 103.228L58.9473 120.434ZM94.7517 112.904C105.526 106.504 113.874 96.7134 118.491 85.0634L102.377 78.6775C99.172 86.7638 93.3774 93.5597 85.8992 98.0019L94.7517 112.904ZM118.491 85.0634C121.021 78.6777 121.801 71.282 121.666 64.4513C121.529 57.5388 120.443 50.5703 118.762 44.7281L102.105 49.5212C103.359 53.8798 104.228 59.3502 104.336 64.7934C104.445 70.3183 103.757 75.1952 102.377 78.6775L118.491 85.0634ZM118.702 49.7208L122.019 39.1583L105.481 33.966L102.165 44.5285L118.702 49.7208Z" fill="url(#paint1_linear_135_145)"/>
</g>
<defs>
<linearGradient id="paint0_linear_135_145" x1="11.375" y1="65" x2="118.5" y2="65" gradientUnits="userSpaceOnUse">
<stop stop-color="#9F02B8"/>
<stop offset="1" stop-color="#F8BD00"/>
</linearGradient>
<linearGradient id="paint1_linear_135_145" x1="10.9999" y1="64.0002" x2="353.5" y2="64.0002" gradientUnits="userSpaceOnUse">
<stop stop-color="#9F02B8"/>
<stop offset="1" stop-color="#F8BD00"/>
</linearGradient>
</defs>
</symbol>
</defs>
</svg>
